# xmcd
#
# Track frame offsets:
# 150
# 13602
# 26253
# 42574
# 58646
# 61787
# 88712
# 96381
# 113799
# 129146
# 141035
# 144893
# 166903
#
# Disc length: 2771 seconds
#
# Revision: 0
# Processed by: cddbd v1.4PL0 Copyright (c) Steve Scherf et al.
# Submitted via: Audion 3.0.2 (http://www.panic.com/audion/)
#
DISCID=a20ad10d
DTITLE=Modey Lemon - Modey Lemon
DYEAR=1900
DGENRE=
TTITLE0=Big Bang
TTITLE1=His Face
TTITLE2=Dr. Body Snatcher
TTITLE3=It's Hard (The Squeal)
TTITLE4=Enfant Terrible pt. I
TTITLE5=Coffin Talk
TTITLE6=Recycler
TTITLE7=Bad Neighborhood
TTITLE8=Feed The Babies
TTITLE9=Grandpa's Bones
TTITLE10=Enfant Terrible pt. II
TTITLE11=Caligula
TTITLE12=Jesus Christ (For Dinner) 2c is master
EXTD=
EXTT0=
EXTT1=
EXTT2=
EXTT3=
EXTT4=
EXTT5=
EXTT6=
EXTT7=
EXTT8=
EXTT9=
EXTT10=
EXTT11=
EXTT12=
PLAYORDER=
